<svg width="41" height="42" viewBox="0 0 41 42" fill="none" xmlns="http://www.w3.org/2000/svg">
<path d="M2.1151 10.3893L13.1023 21.3765L2.11513 32.3637C0.0723499 34.4064 0.0723503 37.7184 2.11513 39.7612C4.15792 41.804 7.46992 41.804 9.51271 39.7612L20.4999 28.774L31.4871 39.7612C33.5299 41.804 36.8419 41.804 38.8846 39.7612C40.9274 37.7184 40.9274 34.4064 38.8846 32.3637L27.8975 21.3765L38.8847 10.3893C40.9275 8.34647 40.9275 5.03446 38.8847 2.99168C36.8419 0.948897 33.5299 0.948895 31.4871 2.99168L20.4999 13.9789L9.51267 2.99168C7.46989 0.948895 4.15788 0.948895 2.1151 2.99168C0.0723124 5.03446 0.0723115 8.34647 2.1151 10.3893Z" fill="#D9D9D9" fill-opacity="0.2" stroke="#FAFAFA"/>
</svg>
